# xmcd
#
# Track frame offsets:
#	150
#	35445
#	64747
#	108368
#	145681
#	176704
#	206429
#	238830
#	266555
#	295914
#	319930
#
# Disc length: 4672 seconds
#
# Revision: 0
# Processed by: cddbd v1.5.2PL0 Copyright (c) Steve Scherf et al.
# Submitted via: EasyCDDAExtractor 16.0.8.1
#
DISCID=a4123e0b
DTITLE=Varios Artistas - Heavenly Disco Mirrorball Off  CD 1
DYEAR=2011
DGENRE=Dance
TTITLE0=Mario Biondi and The High Five Quintet - This Is What You Are
TTITLE1=Vincent Valler Featuring Savio - Love's Theme
TTITLE2=Ron Hall and The Muthafunkaz Featuring Marc Evans - The Way You Love Me
TTITLE3=Mark Picchiotti Feat Dana Divine - So Sweet
TTITLE4=Colette - What Will She Do For Love
TTITLE5=Manyus Vs Four Funk Feat Eclissi Dj Soul - Around The World
TTITLE6=Andy Caldwell - Don't You Love Me
TTITLE7=White Soul Project - Ever Love
TTITLE8=Chuck Love - Soul Symphony
TTITLE9=Jonathan Meyer Feat June Grey - Talking Alone
TTITLE10=Dance 4 Daddy and Dolls Combers Feat Mercy - Make It Happen
EXTD=
EXTT0=
EXTT1=
EXTT2=
EXTT3=
EXTT4=
EXTT5=
EXTT6=
EXTT7=
EXTT8=
EXTT9=
EXTT10=
PLAYORDER=
